# xmcd
#
# Track frame offsets: 
#        150
#        12922
#        30268
#        56487
#        70362
#        74409
#        88011
#        101915
#        116341
#        125616
#        134703
#        166208
#        175527
#        192760
#        205849
#        217981
#        227241
#
# Disc length: 3213 seconds
#
# Revision: 0
# Processed by: cddbd v1.5.2PL0 Copyright (c) Steve Scherf et al.
# Submitted via: ExactAudioCopy v0.95b3
#
DISCID=ee0c8b11
DTITLE=The Beatles  - The BRG White Album Remix D 1  FLAC
DYEAR=1900
DGENRE=
TTITLE0=Back In The USSR
TTITLE1=Dear Prudence [Remix 0910]
TTITLE2=Glass Onion
TTITLE3=Ob-La-Di. Ob-La-Da [Remix 0910]
TTITLE4=Wild Honey Pie [Remix 0908]
TTITLE5=The Continuing Story Of Bugalow Bill
TTITLE6=While My Guitar Gently Weeps
TTITLE7=Happiness Is A Warm Gun
TTITLE8=Martha My Dear
TTITLE9=I'm So Tired [Remix]
TTITLE10=Geoff Emerick's Blackbird
TTITLE11=Piggies
TTITLE12=Rocky Raccoon
TTITLE13=Don't Pass Me By
TTITLE14=Why Don't We Do It In The Road?
TTITLE15=I Will [Remix 0911]
TTITLE16=Julia
EXTD=
EXTT0=
EXTT1=
EXTT2=
EXTT3=
EXTT4=
EXTT5=
EXTT6=
EXTT7=
EXTT8=
EXTT9=
EXTT10=
EXTT11=
EXTT12=
EXTT13=
EXTT14=
EXTT15=
EXTT16=
PLAYORDER=
